HIERARCHY
ROOT root
{
	OFFSET 0.000000 0.000000 0.000000
	CHANNELS 6 Xposition Yposition Zposition Zrotation Yrotation Xrotation
	JOINT lhip
	{
		OFFSET 0.058581 -0.082280 -0.017664
		CHANNELS 3 Zrotation Yrotation Xrotation
		JOINT lknee
		{
			OFFSET 0.043451 -0.386469 0.008037
			CHANNELS 3 Zrotation Yrotation Xrotation
			JOINT lankle
			{
				OFFSET -0.014790 -0.426874 -0.037428
				CHANNELS 3 Zrotation Yrotation Xrotation
				JOINT ltoe
				{
					OFFSET 0.041054 -0.060286 0.122042
					CHANNELS 3 Zrotation Yrotation Xrotation
					End Site
					{
						OFFSET 0.000000 0.000000 0.000000
					}
				}
			}
		}
	}
	JOINT rhip
	{
		OFFSET -0.060310 -0.090513 -0.013543
		CHANNELS 3 Zrotation Yrotation Xrotation
		JOINT rknee
		{
			OFFSET -0.043257 -0.383688 -0.004843
			CHANNELS 3 Zrotation Yrotation Xrotation
			JOINT rankle
			{
				OFFSET 0.019056 -0.420046 -0.034562
				CHANNELS 3 Zrotation Yrotation Xrotation
				JOINT rtoe
				{
					OFFSET -0.034840 -0.062106 0.130323
					CHANNELS 3 Zrotation Yrotation Xrotation
					End Site
					{
						OFFSET 0.000000 0.000000 0.000000
					}
				}
			}
		}
	}
	JOINT lowerback
	{
		OFFSET 0.004439 0.124404 -0.038385
		CHANNELS 3 Zrotation Yrotation Xrotation
		JOINT upperback
		{
			OFFSET 0.004488 0.137956 0.026820
			CHANNELS 3 Zrotation Yrotation Xrotation
			JOINT chest
			{
				OFFSET -0.002265 0.056032 0.002855
				CHANNELS 3 Zrotation Yrotation Xrotation
				JOINT lowerneck
				{
					OFFSET -0.013390 0.211636 -0.033468
					CHANNELS 3 Zrotation Yrotation Xrotation
					JOINT upperneck
					{
						OFFSET 0.010113 0.088937 0.050410
						CHANNELS 3 Zrotation Yrotation Xrotation
						End Site
						{
							OFFSET 0.000000 0.000000 0.000000
						}
					}
				}
				JOINT lclavicle
				{
					OFFSET 0.071702 0.114000 -0.018898
					CHANNELS 3 Zrotation Yrotation Xrotation
					JOINT lshoulder
					{
						OFFSET 0.122921 0.045205 -0.019046
						CHANNELS 3 Zrotation Yrotation Xrotation
						JOINT lelbow
						{
							OFFSET 0.255332 -0.015649 -0.022946
							CHANNELS 3 Zrotation Yrotation Xrotation
							JOINT lwrist
							{
								OFFSET 0.265709 0.012698 -0.007375
								CHANNELS 3 Zrotation Yrotation Xrotation
								End Site
								{
									OFFSET 0.000000 0.000000 0.000000
								}
							}
						}
					}
				}
				JOINT rclavicle
				{
					OFFSET -0.082954 0.112472 -0.023707
					CHANNELS 3 Zrotation Yrotation Xrotation
					JOINT rshoulder
					{
						OFFSET -0.113228 0.046853 -0.008472
						CHANNELS 3 Zrotation Yrotation Xrotation
						JOINT relbow
						{
							OFFSET -0.260127 -0.014369 -0.031269
							CHANNELS 3 Zrotation Yrotation Xrotation
							JOINT rwrist
							{
								OFFSET -0.269108 0.006794 -0.006027
								CHANNELS 3 Zrotation Yrotation Xrotation
								End Site
								{
									OFFSET 0.000000 0.000000 0.000000
								}
							}
						}
					}
				}
			}
		}
	}
}
MOTION
Frames: 12
Frame Time: 0.033333
0.720173 0.262315 1.003773 86.997437 -0.562762 82.022169 1.166209 0.899491 -11.051756 -6.205832 0.230081 52.363887 2.487949 7.999093 -3.100114 0.000000 -0.000000 0.000000 3.969842 -4.124309 5.591270 1.796767 2.508513 9.660887 -0.167853 -6.204504 -10.155774 0.000000 -0.000000 0.000000 1.474688 3.631744 13.715914 0.808418 0.512234 -3.335348 -0.503346 0.380126 2.410260 1.307616 3.107007 -5.269131 -2.603353 1.075172 12.638186 -30.637556 5.741476 -1.440672 -51.124824 -4.929552 7.892826 3.701399 -28.676768 10.900643 -4.507051 0.959453 -0.786479 31.137451 -0.149356 -1.166086 49.730010 6.437415 12.710529 -10.243301 22.594331 -7.060546 5.583696 0.510271 -4.921914 
0.754961 0.262891 1.003314 85.375519 -0.952037 82.303854 1.263904 1.186002 -13.311142 -4.634284 2.431026 45.543470 1.820898 8.987405 -5.367374 0.000000 -0.000000 0.000000 3.052810 -5.136859 7.849625 1.684357 3.068738 8.557299 0.590705 -5.080105 -10.985786 0.000000 -0.000000 0.000000 1.709637 4.607702 14.377827 0.235250 0.827402 -3.859402 -0.665065 1.003196 2.511860 1.328274 3.508620 -6.125130 -2.944004 0.853795 12.538887 -30.812425 6.232058 -2.240525 -51.551657 -3.528565 8.146096 3.212398 -28.049342 11.703015 -3.728883 0.739135 -0.151730 30.630274 0.056987 -1.752030 49.261360 7.950032 12.800539 -9.986375 24.609855 -7.194375 4.247067 1.599074 -4.579541 
0.788988 0.263638 1.000853 83.824291 -1.276919 83.014567 1.349690 1.401757 -15.132441 -3.238940 4.621414 37.039406 2.090652 10.486785 -5.871132 0.000000 -0.000000 0.000000 2.373191 -5.666258 8.951201 1.423846 3.998968 9.789114 0.423092 -4.991514 -12.624931 0.000000 -0.000000 0.000000 1.806800 5.375851 14.028018 -0.193998 1.053956 -3.793986 -0.927106 1.389205 2.563722 1.462135 4.072723 -6.545584 -3.275779 0.577002 12.293280 -30.809086 6.720535 -2.384163 -52.051161 -2.399745 8.384381 3.387755 -27.631009 11.795423 -3.600170 0.108060 -0.349361 30.331461 0.690946 -1.714416 48.707923 9.864256 12.799483 -10.113381 26.232635 -7.465898 3.958294 1.128690 -4.483573 
0.823413 0.264752 0.996807 83.129717 -1.308499 83.546430 1.365491 1.565245 -15.878735 -2.815677 5.056952 26.322199 1.599197 10.454775 -5.167411 0.000000 -0.000000 0.000000 2.016119 -5.536283 10.994211 1.365798 4.618601 9.338780 0.539596 -5.522690 -13.560054 0.000000 -0.000000 0.000000 1.965452 5.593732 14.117991 -0.484090 1.166564 -3.733916 -1.007030 1.672835 2.355683 1.411361 4.288781 -7.478792 -3.563431 0.103196 12.219707 -31.015249 6.826795 -2.358703 -52.343321 -1.602473 8.579487 3.240251 -26.558412 11.791807 -2.977280 -0.362400 -0.288171 29.987156 1.390611 -1.893466 48.264802 11.090242 13.226965 -10.590861 27.465040 -7.598548 3.019821 2.068083 -4.200109 
0.859286 0.266935 0.991436 82.830003 -1.113253 84.096919 1.284948 1.621883 -16.136297 -2.747710 4.142317 16.029122 -0.589373 10.312259 -3.901065 0.000000 -0.000000 0.000000 1.650417 -5.672172 13.001931 1.149859 4.922661 9.268248 0.899241 -4.895118 -14.677936 0.000000 -0.000000 0.000000 2.299996 5.647128 13.841092 -0.681149 1.060359 -3.332628 -1.052561 1.905257 2.066042 1.437589 5.032083 -8.159722 -3.900883 -0.559891 12.269589 -31.058910 6.748562 -2.624626 -52.876162 -0.631575 9.015693 3.368776 -25.445650 11.237183 -3.086294 -0.794945 -0.280256 29.590955 1.774258 -2.154089 47.944720 12.254403 13.221401 -10.799419 28.704144 -7.846267 2.631675 3.016316 -4.603352 
0.895534 0.269548 0.985357 82.526184 -0.787526 85.125032 0.951947 1.717399 -16.456988 -2.493621 1.694696 5.492718 -0.605119 9.403180 -4.956443 0.000000 -0.000000 0.000000 1.164572 -6.210934 13.716420 1.292468 5.981381 10.618237 1.515202 -4.350892 -16.477107 0.000000 -0.000000 0.000000 2.775855 5.900665 12.829257 -0.774100 1.009431 -2.934236 -1.211007 1.942409 1.962405 1.868029 5.461426 -8.233754 -4.412357 -1.383643 12.015423 -31.273410 6.637411 -3.106737 -52.948653 -0.004517 9.512258 2.857125 -23.867399 11.524652 -2.838968 -0.004819 0.853592 29.530505 1.937336 -2.495186 47.693693 13.272598 12.874553 -11.303813 30.031936 -8.788950 2.874498 2.226060 -4.437582 
0.934156 0.271823 0.978600 82.339483 -0.594918 85.827501 0.571220 1.759273 -16.429695 -1.941829 0.745359 -2.254066 -1.189297 7.704835 -5.751712 0.000000 -0.000000 0.000000 0.788959 -6.068320 14.876724 1.194973 6.718540 12.000557 2.811165 -4.191424 -18.003608 0.000000 -0.000000 0.000000 2.648662 6.152986 12.381498 -0.639678 0.945497 -3.030289 -1.115984 2.037990 1.765824 2.197570 5.898334 -8.493698 -4.642977 -2.090578 12.105575 -31.357004 6.762637 -3.381426 -53.249775 0.569187 9.902554 3.047384 -22.845686 12.097198 -2.277435 -0.427682 2.754119 29.514649 1.849610 -2.905670 47.657516 13.643096 12.944474 -11.831240 30.981622 -9.068849 2.548260 3.430332 -4.207183 
0.975793 0.275099 0.971748 82.465717 -0.759770 85.845048 0.094927 0.654170 -17.646122 -2.363370 1.963409 -0.177455 -0.801413 8.139258 -6.463306 0.000000 -0.000000 0.000000 0.071343 -5.676944 16.444106 0.969786 7.052435 13.999800 3.758811 -4.262240 -18.714999 0.000000 -0.000000 0.000000 2.278281 6.641909 12.343246 -0.435085 0.565851 -3.023390 -1.079539 2.032234 1.788024 2.474672 5.671181 -8.926713 -4.582884 -2.075581 12.170186 -31.239558 6.635011 -3.221461 -53.650409 0.779674 9.891921 3.146709 -21.764747 11.944258 -2.411493 -0.475011 1.784202 29.609613 1.935674 -2.901684 47.681259 13.619590 13.162157 -12.812781 31.335902 -9.626601 2.251628 4.496322 -4.961639 
1.020401 0.279398 0.965697 82.436646 -1.300439 85.720017 -0.771103 -1.246682 -18.274420 -2.772812 2.573044 4.866329 1.180818 8.979042 -4.395605 0.000000 -0.000000 0.000000 -1.052504 -4.766578 17.310525 1.006149 7.807936 18.154858 4.733796 -4.171642 -17.193053 0.000000 -0.000000 0.000000 1.599362 7.372946 12.058891 -0.197593 0.357736 -2.728723 -1.155139 1.842524 1.754528 2.706345 5.284920 -8.762450 -4.563083 -1.765821 11.645587 -31.318233 6.575858 -3.008616 -53.334816 1.008782 9.990975 3.296873 -21.889439 12.239652 -3.341835 0.278595 2.141132 30.100226 1.825933 -2.941520 47.582855 13.362327 13.436616 -13.664403 31.269353 -10.467422 2.786553 4.137308 -4.654633 
1.067764 0.282928 0.963539 82.381294 -1.796389 85.587531 -1.473900 -2.265787 -18.670094 -3.507821 1.014453 9.980988 1.817802 7.880245 -0.054015 0.000000 -0.000000 0.000000 -1.794804 -3.980442 16.863813 0.876140 8.189840 23.742600 5.691217 -3.712176 -12.928413 0.000000 -0.000000 0.000000 0.566558 7.791599 11.349133 0.156102 0.436766 -2.593839 -1.144751 1.841322 1.698760 3.061002 4.628811 -8.280979 -4.333995 -1.551793 12.234716 -31.732639 6.792945 -2.928773 -52.641506 0.845835 9.916149 3.491167 -20.822965 11.432255 -4.105547 0.250795 1.694015 31.248967 1.342065 -2.891414 47.296354 12.650909 13.984071 -14.169974 30.314643 -11.446102 3.045338 3.786209 -4.414932 
1.113777 0.288499 0.967205 83.474672 -2.191886 85.066057 -2.501019 -3.632799 -18.216644 -4.093439 0.645259 14.946655 4.464658 8.902036 -0.609607 0.000000 -0.000000 0.000000 -2.591164 -3.989305 14.212240 0.992611 6.943850 32.544036 7.895826 -2.858522 -2.916241 0.000000 -0.000000 0.000000 0.281601 7.460091 11.206079 0.173109 0.406320 -2.647707 -1.301267 1.513368 1.664848 2.807902 3.254191 -7.431267 -3.844621 -0.619209 12.214550 -31.585124 6.867449 -2.804213 -52.918805 0.131923 9.485917 4.315590 -19.620473 10.138169 -5.242146 0.906932 1.206610 31.387705 0.470779 -3.046983 48.469450 12.031756 14.271489 -14.213602 28.011919 -11.775054 4.078654 3.122198 -3.891966 
1.159027 0.292876 0.971358 84.124391 -2.456270 84.123896 -3.847789 -3.761426 -15.335784 -4.665907 -0.409423 16.687831 7.895229 8.858368 -2.177863 0.000000 -0.000000 0.000000 -2.899854 -3.181798 10.369535 1.956194 6.331937 42.228933 7.366801 -3.536668 7.596664 0.000000 -0.000000 0.000000 -0.093430 6.437122 10.992531 0.429269 1.036362 -2.038417 -1.585920 1.295465 1.815435 2.666817 2.245850 -6.631976 -3.727809 0.409763 11.730026 -31.546645 6.436351 -1.920152 -52.639790 -0.907054 9.159172 4.932379 -20.268814 9.862377 -5.942886 0.037095 1.809607 31.288596 0.653381 -2.305972 49.620892 11.353273 14.439343 -14.543463 25.713042 -12.933935 5.093075 2.656855 -3.705436 
